<svg xmlns="http://www.w3.org/2000/svg" width="450" height="122.8" viewBox="0 0 450 122.8"><path fill-rule="evenodd" clip-rule="evenodd" d="M155 6.3h14.5v76h-14.5z"/><path fill-rule="evenodd" clip-rule="evenodd" fill="#F1F2F2" d="M0 89.8h14v15.5h-14z"/><path fill-rule="evenodd" clip-rule="evenodd" fill="#E6E7E8" d="M19.5 49.3c4.5 2.6 11 3 11 3l126.5.5c.4-16.9 4.1-39.5 5.7-48.5h-131.7s-15.3 15-20.6 36.6c1.2 1.5 4.6 5.7 9.1 8.4zm20-38h105.5s3.5 1.8 3.5 3-3 28.1-3 29c0 .9-1.9 5-6 5h-79c-3.6-.1-8-6.3-6.5-4s-16.3-22.2-16-31.5c.1-1 .7-1.5 1.5-1.5zm338 40c7 1.7 33.5 7.1 43.5 8.5 6.8 1 14.6 4.6 18.9 6.8-3-3.4-7.4-5.9-14.4-7.8-7.3-2.1-22-4-22-4s-18.8-2.8-31.3-6.1c.6.8 2 1.8 5.3 2.6zm72.5 62s.2-26.1-6.5-41c-.2-.5-.5-1-.8-1.6-2.4-1.7-10.4-6.8-21.2-8.9-13.1-2.6-37.3-6.6-45-8.5-5.3-1.3-6.9-3.9-7.3-5.4-1.8-.5-3.4-1.1-4.7-1.6-.3-.1-.6-.3-1-.5 0 6.2-.1 22.6-2.5 37.5-2.4 14.8-8.5 28-8.5 28h-2s6-12.4 8.5-28c2.5-15.5 2.6-33.7 2.5-38.7-12.4-8.1-41.5-37.3-52.5-37.3-3.5 0-30.8-3.5-67.4-4l-.1 108h-1.5l.3-108c-19.1-.3-68.4-2.4-74.3 3-1.3 3-2.5 6.5-2.5 6.5h-.2c-1.2 6.7-4.3 25.5-4.3 43 0 22.2 2.5 44.5 2.5 44.5l-.4-.2c1.5 6.8 1.4 12.2 1.4 12.2h201.5s1.2-32.5 34-32.5c24.1 0 33 22.6 33 30 0 7.4-.5 11-.5 11s11.3-.6 15.5-2c4.2-1.4 4-5.5 4-5.5zm-214-68.5c0 3.9-3.1 7-7 7h-48c-3.9 0-7-3.1-7-7l1.5-22.5c1.2-11 2.3-13 13-13l40.5-1c3.9 0 7 3.1 7 7v29.5zm19 8c-3.9 0-7-3.1-7-7l-1.5-31c0-3.9 1.6-6 5.5-6 0 0 46.4 3 46.5 3 9.3 0 53.5 40.5 53.5 40.5s1.9 3-2 3l-95-2.5zm-98 2l-126.5-.5s-6.8-.4-12-3c-4.9-2.5-7.8-6.3-8.7-7.6-.1.5-.2 1-.3 1.6-4.1 23.9.4 63.5 4 63.5l74.5 3s-2-41 38.5-41c18.5 0 27.5 10.4 31.9 20.7-.6-8.2-1.4-22-1.4-36.2v-.5z"/><path fill-rule="evenodd" clip-rule="evenodd" fill="#A7A9AC" d="M236 105.6c0-1-.8-1.8-1.8-1.8h-67c-1 0-1.8.8-1.8 1.8s.8 1.8 1.8 1.8h67c1-.1 1.8-.9 1.8-1.8zM347.5 105.6c0-1-1.1-1.8-2.6-1.8h-97.9c-1.4 0-2.6.8-2.6 1.8s1.1 1.8 2.6 1.8h97.9c1.5-.1 2.6-.9 2.6-1.8zM182.5 60.8c0-2.8-2.2-5-5-5h-.5c-2.8 0-5 2.2-5 5s2.2 5 5 5h.5c2.8 0 5-2.2 5-5zM262.5 61.3c0-2.8-2.2-5-5-5h-.5c-2.8 0-5 2.2-5 5s2.2 5 5 5h.5c2.8 0 5-2.2 5-5z"/><path fill-rule="evenodd" clip-rule="evenodd" fill="#F1F2F2" d="M185 60.8c0-1-.2-1.8-.4-1.8h-14.7c-.2 0-.4.8-.4 1.8s.2 1.8.4 1.8h14.7c.2 0 .4-.8.4-1.8zM265 60.8c0-1-.2-1.8-.4-1.8h-14.7c-.2 0-.4.8-.4 1.8s.2 1.8.4 1.8h14.7c.2 0 .4-.8.4-1.8z"/></svg>